<?xml version="1.0" encoding="UTF-8" standalone="no"?>
<svg
   height="24"
   viewBox="0 -960 960 960"
   width="24"
   version="1.1"
   id="svg1"
   sodipodi:docname="controller.svg"
   inkscape:version="1.3 (0e150ed, 2023-07-21)"
   xmlns:inkscape="http://www.inkscape.org/namespaces/inkscape"
   xmlns:sodipodi="http://sodipodi.sourceforge.net/DTD/sodipodi-0.dtd"
   xmlns="http://www.w3.org/2000/svg"
   xmlns:svg="http://www.w3.org/2000/svg">
  <defs
     id="defs1" />
  <sodipodi:namedview
     id="namedview1"
     pagecolor="#ffffff"
     bordercolor="#000000"
     borderopacity="0.25"
     inkscape:showpageshadow="2"
     inkscape:pageopacity="0.0"
     inkscape:pagecheckerboard="0"
     inkscape:deskcolor="#d1d1d1"
     inkscape:zoom="9.8333333"
     inkscape:cx="11.949153"
     inkscape:cy="12"
     inkscape:window-width="1312"
     inkscape:window-height="449"
     inkscape:window-x="0"
     inkscape:window-y="38"
     inkscape:window-maximized="0"
     inkscape:current-layer="svg1" />
  <path
     d="M182-200q-51 0-79-35.5T82-322l42-300q9-60 53.5-99T282-760h396q60 0 104.5 39t53.5 99l42 300q7 51-21 86.5T778-200q-21 0-39-7.5T706-230l-90-90H344l-90 90q-15 15-33 22.5t-39 7.5Zm498-240q17 0 28.5-11.5T720-480q0-17-11.5-28.5T680-520q-17 0-28.5 11.5T640-480q0 17 11.5 28.5T680-440Zm-80-120q17 0 28.5-11.5T640-600q0-17-11.5-28.5T600-640q-17 0-28.5 11.5T560-600q0 17 11.5 28.5T600-560ZM310-440h60v-70h70v-60h-70v-70h-60v70h-70v60h70v70Z"
     id="path1"
     style="fill:#ffffff" />
</svg>
